<svg width="365" height="332" viewBox="0 0 365 332" fill="none" xmlns="http://www.w3.org/2000/svg">
<path d="M87.0769 327.719C77.17 331.428 66.4084 332.759 55.7951 331.586C45.1819 330.414 35.0625 326.776 26.3805 321.013C17.6984 315.25 10.7363 307.548 6.14316 298.626C1.55002 289.704 -0.524628 279.852 0.11264 269.989L2.73605 229.373C2.83743 227.804 3.55573 226.323 4.75571 225.21C5.95572 224.096 7.55469 223.426 9.25177 223.326C10.9489 223.226 12.627 223.702 13.9704 224.666C15.3139 225.63 16.23 227.014 16.5464 228.559C17.8996 235.17 20.684 241.461 24.7324 247.053C28.7809 252.645 34.0099 257.423 40.1056 261.101C46.2014 264.779 53.0381 267.28 60.2055 268.455C67.3729 269.63 74.7232 269.453 81.8151 267.937L246.619 232.702C250.981 231.768 255.564 232.389 259.453 234.441C263.342 236.493 266.251 239.825 267.6 243.772C268.949 247.718 268.639 251.99 266.732 255.735C264.825 259.48 261.46 262.423 257.309 263.976L87.0769 327.719ZM74.6112 50.4286C76.0894 40.6431 80.2237 31.3627 86.6288 23.4527C93.034 15.5427 101.501 9.26061 111.242 5.19197C120.982 1.12333 131.678 -0.599378 142.333 0.184456C152.988 0.96829 163.255 4.23314 172.177 9.67465L208.917 32.0831C210.334 32.9494 211.361 34.2645 211.804 35.7813C212.247 37.2981 212.075 38.9122 211.32 40.3201C210.566 41.728 209.282 42.8327 207.708 43.4267C206.135 44.0207 204.381 44.063 202.776 43.5456C195.906 41.3231 188.62 40.4067 181.357 40.8514C174.094 41.2961 167.003 43.0928 160.51 46.1336C154.016 49.1744 148.255 53.3967 143.57 58.5469C138.886 63.6972 135.375 69.6692 133.25 76.1046L83.8589 225.658C82.5522 229.618 79.6788 232.976 75.812 235.063C71.9452 237.151 67.3692 237.814 62.9969 236.92C58.6245 236.027 54.7772 233.643 52.2225 230.243C49.6677 226.844 48.5934 222.679 49.2136 218.579L74.6112 50.4286ZM340.625 179.096C349.054 185.172 355.68 193.122 359.888 202.204C364.096 211.286 365.747 221.206 364.689 231.037C363.63 240.869 359.897 250.293 353.835 258.431C347.774 266.568 339.582 273.155 330.024 277.577L290.661 295.787C289.14 296.493 287.391 296.661 285.746 296.258C284.1 295.855 282.671 294.909 281.727 293.599C280.784 292.289 280.392 290.705 280.624 289.146C280.857 287.587 281.699 286.161 282.991 285.136C288.509 280.747 293.01 275.373 296.225 269.336C299.44 263.299 301.303 256.724 301.701 250.005C302.099 243.286 301.024 236.563 298.541 230.237C296.058 223.912 292.218 218.116 287.252 213.196L171.836 98.8805C168.781 95.8547 167.072 91.8755 167.05 87.7366C167.028 83.5977 168.695 79.6033 171.718 76.55C174.741 73.4967 178.898 71.609 183.359 71.2633C187.821 70.9176 192.26 72.1394 195.791 74.6849L340.625 179.096Z" fill="#008080"/>
</svg>
